<svg data-name="Layer 1" xmlns="http://www.w3.org/2000/svg" viewBox="0 0 219.3 30"><path d="M18.3 11.7l-1.1-4.4a.4.4 0 0 0-.3-.3l-4.4-1.1h-.4l-2.9 3 6.1 6.1 2.9-2.9a.4.4 0 0 0 .1-.4z" fill="#86c771"/><path d="M0 18.4l1.2 4.4a.4.4 0 0 0 .3.3l4.4 1.2h.3l2.9-2.9L3 15 .1 17.9a.4.4 0 0 0-.1.5z" fill="#f8cf1f"/><path d="M5.8 5.9L1.5 7a.4.4 0 0 0-.3.3L0 11.7a.4.4 0 0 0 .1.4L3 15l6.2-6.1-3-2.9h-.4z" fill="#c6d534"/><path d="M18.2 17.9L15.3 15l-6.1 6.1L12 24h.5l4.3-1a.5.5 0 0 0 .4-.4l1.1-4.2a.5.5 0 0 0-.1-.5z" fill="#ba83b9"/><path fill="#772b7e" d="M3.06 15.072L9.212 8.92l6.116 6.117-6.15 6.15zM26.9 22.7l-4.3-13-.3-.2h-1a.4.4 0 0 1-.4-.4V7.5a.4.4 0 0 1 .4-.4h6.6a.4.4 0 0 1 .4.4v1.6a.4.4 0 0 1-.4.4H27a.3.3 0 0 0-.3.3l2.2 6.7a.3.3 0 0 0 .4.2l.2-.2 3.6-9.3a.4.4 0 0 1 .4-.3h2a.4.4 0 0 1 .4.3l3.3 9.2a.3.3 0 0 0 .4.2l.2-.2L42 9.9a.3.3 0 0 0-.2-.4h-1a.4.4 0 0 1-.4-.4V7.5a.4.4 0 0 1 .4-.4h6a.4.4 0 0 1 .4.4l-.6 1.7a.4.4 0 0 1-.4.3h-1l-.2.2-4.4 13a.4.4 0 0 1-.4.3h-2.4a.4.4 0 0 1-.4-.3L34 13.2a.3.3 0 0 0-.4-.2l-.2.2-3.7 9.5a.4.4 0 0 1-.4.3h-2a.4.4 0 0 1-.4-.3zM61 20.6a1.1 1.1 0 0 1-1.3-1.4v-7.1c0-3.2-2.6-5.2-5.6-5.2-4.6 0-6.3 2.2-6.5 4.6a.4.4 0 0 0 .4.5h2.3a.4.4 0 0 0 .4-.4 2.3 2.3 0 0 1 2.4-2.2 2.3 2.3 0 0 1 2.6 2.6v1.6h-.8c-2.8 0-4.8.4-6.1 1.2a4.7 4.7 0 0 0-2 4.1 4.3 4.3 0 0 0 1.4 3.3 4.5 4.5 0 0 0 3.3 1.2 5.7 5.7 0 0 0 2.4-.5 7.9 7.9 0 0 0 2-1.3.3.3 0 0 1 .4 0 2.7 2.7 0 0 0 2.7 1.5c1.2 0 1.8-1.1 2.3-1.8a.4.4 0 0 0-.1-.6H61zm-5.3-1.2l-.2.3-1.2.8-1.3.2a2.2 2.2 0 0 1-1.7-.7 2.4 2.4 0 0 1-.6-1.7 2.2 2.2 0 0 1 1.1-2 6.2 6.2 0 0 1 3.3-.7h.7v3.8z"/><path d="M85.1 0a4.7 4.7 0 0 0-3.9 1.7 6.4 6.4 0 0 0-1.4 4.5v.6a.3.3 0 0 1-.3.3h-6.1a.4.4 0 0 0-.4.4v1.6a.4.4 0 0 0 .4.4h.3a.3.3 0 0 1 .3.3l-3.1 7.3a.3.3 0 0 1-.4.1h-.2l-3.2-7.3a.3.3 0 0 1 .2-.4h1.1a.4.4 0 0 0 .4-.4V7.5a.4.4 0 0 0-.4-.4h-8.1a.4.4 0 0 0-.4.4v.2l.9 1.6.4.2h1.2l.3.2 6 12.8a.4.4 0 0 1 0 .3l-1.1 2.3c-.6 1.2-1.2 2.3-2.5 2.3a2.8 2.8 0 0 1-1.7-.8.4.4 0 0 0-.6 0l-1.2 1.2a.4.4 0 0 0 0 .6 5.1 5.1 0 0 0 3.3 1.6 4.6 4.6 0 0 0 4.6-3.1l7.8-17.2.3-.2h1.9a.3.3 0 0 1 .3.3v10.8l-1.4 1.8a.4.4 0 0 0 .1.6h6.9a.4.4 0 0 0 .4-.4V21a.4.4 0 0 0-.4-.4h-1.3a.3.3 0 0 1-.3-.3V9.8a.3.3 0 0 1 .3-.3h2l.3-.2 1.2-1.6a.4.4 0 0 0-.1-.6H84a.3.3 0 0 1-.3-.3V4.4c0-1.1.6-2.3 1.8-2.3s1.6 1.1 1.6 2a.4.4 0 0 0 .4.4h2a.4.4 0 0 0 .5-.3c0-3-1.9-4.2-4.9-4.2zM123.2 7.1l-1.2-.2c-1.8 0-2.7.6-3.8 2.2a.3.3 0 0 1-.4.1V7.5a.4.4 0 0 0-.4-.4h-3.3l-1.3 1.6a.4.4 0 0 0 .1.6h.6a.3.3 0 0 1 .3.3v11l-1.4 1.8a.4.4 0 0 0 .1.6h6.5a.4.4 0 0 0 .4-.4V21a.4.4 0 0 0-.4-.4h-1a.3.3 0 0 1-.3-.3v-8a4.4 4.4 0 0 1 3.5-2.3 5.9 5.9 0 0 1 1.9.3.4.4 0 0 0 .4-.4V7.5a.5.5 0 0 0-.3-.4zM110.5 20.6h-1a.3.3 0 0 1-.3-.3V7.5a.4.4 0 0 0-.4-.4h-3l-.3.2-1.2 1.6a.4.4 0 0 0 .1.6h.7a.3.3 0 0 1 .3.3v10.8l-1.4 1.8a.4.4 0 0 0 0 .6h5.9l1.2-1.6a.4.4 0 0 0 0-.6h-.3z" fill="#772b7e"/><circle cx="107.1" cy="3.1" r="2.3" fill="#772b7e"/><path d="M102 20.6a1.1 1.1 0 0 1-1.3-1.4v-7.1c0-3.2-2.6-5.2-5.6-5.2-4.6 0-6.3 2.2-6.5 4.6a.4.4 0 0 0 .4.5h2.3a.4.4 0 0 0 .4-.4 2.3 2.3 0 0 1 2.4-2.2 2.3 2.3 0 0 1 2.6 2.6v1.6h-.9c-2.8 0-4.8.4-6.1 1.2a4.7 4.7 0 0 0-2 4.1 4.3 4.3 0 0 0 1.4 3.3 4.5 4.5 0 0 0 3.3 1.2 5.7 5.7 0 0 0 2.4-.5 7.9 7.9 0 0 0 2-1.3.3.3 0 0 1 .4 0 2.7 2.7 0 0 0 2.7 1.5c1.2 0 1.8-1.1 2.3-1.8a.4.4 0 0 0-.1-.6h-.1zm-5.3-1.2l-.2.3-1.2.8-1.3.2a2.2 2.2 0 0 1-1.7-.7 2.4 2.4 0 0 1-.6-1.7 2.2 2.2 0 0 1 1.1-2 6.2 6.2 0 0 1 3.3-.7h.7v3.8z" fill="#772b7e"/><path d="M138.2 14.6c0-1.9-1.1-3.9-3.7-3.9h-4.8v12.4h1.7v-4.6h1.6l3.2 4.6h2l-3.3-4.7c2.4-.2 3.3-2 3.3-3.8zm-6.7 2.3v-4.6h3a2 2 0 0 1 2 2.3 2 2 0 0 1-2.1 2.3h-2.9zM143.8 17.8h4.9v-1.6h-4.9v-3.9h5.7v-1.6h-7.4v12.4h7.5v-1.6h-5.8v-3.7M159.2 18.3h3.5c-.1 2-1.7 3.3-4 3.3a4.8 4.8 0 0 1 0-9.5 4.5 4.5 0 0 1 3 1.2l1.2-1.1a6.1 6.1 0 0 0-4.2-1.6 6.4 6.4 0 0 0 0 12.7c3.5 0 5.9-2 5.9-6.4h-5.4v1.5zM168.1 10.7h1.7v12.39h-1.7zM178.8 16.2l-1.6-.4c-1.6-.4-1.8-1.2-1.8-1.7a2.4 2.4 0 0 1 4.7.2h1.7c0-2.2-1.7-3.6-4-3.6a3.7 3.7 0 0 0-4 3.5c0 1.1.4 2.6 3 3.2l1.6.4c1.1.3 2.2.9 2.1 2.2a2.3 2.3 0 0 1-2.5 1.8 2.5 2.5 0 0 1-2.7-2.2h-1.7a4.1 4.1 0 0 0 4.3 3.8c2.4 0 3.9-1.5 4.1-3.2s-.8-3.4-3.2-4zM184.7 12.3h3.8v10.8h1.7V12.3h3.7v-1.6h-9.2v1.6M205.8 14.6c0-1.9-1.1-3.9-3.7-3.9h-4.8v12.4h1.7v-4.6h1.6l3.2 4.6h2l-3.3-4.7c2.4-.2 3.3-2 3.3-3.8zm-6.7 2.3v-4.6h3a2 2 0 0 1 2 2.3 2 2 0 0 1-2.1 2.3h-2.9zM217.3 10.7l-3.6 5-3.6-5h-2l4.7 6.7v5.7h1.8v-5.7l4.7-6.7h-2" fill="#4e4e4f"/></svg>